# xmcd
# 
# Track frame offsets:
#     193
#     16597
#     45715
#     66152
#     92408
#     119399
#     136342
#     156638
#     181221
#     201309
#     231776
#     258958
#     274288
#     296879
#     318904
# 
# Disc length: 4499
# 
# Revision: 9
# Processed by: cddbd v1.5.2PL0 Copyright (c) Steve Scherf et al.
# Submitted via: fre:ac v1.0.31
# 
DISCID=d911910f
DTITLE=Peter Tosh - Equal Rights Disc 1
DYEAR=1977
DGENRE=Reggae
TTITLE0=Get Up, Stand Up
TTITLE1=Downpressor Man
TTITLE2=I Am That I Am
TTITLE3=Stepping Razor
TTITLE4=Equal Rights
TTITLE5=African
TTITLE6=Jah Guide
TTITLE7=Apartheid
TTITLE8=400 Years [Outtake]
TTITLE9=Hammer [Extended Version - Outtake]
TTITLE10=Jah Man Inna Jamdung [Outtake]
TTITLE11=Vampire [Outtake]
TTITLE12=Babylon Queendom [Outtake]
TTITLE13=You Can't Blame The Youth [Outtake]
TTITLE14=Mark Of The Beast [Outtake]
EXTD=
EXTT0=
EXTT1=
EXTT2=
EXTT3=
EXTT4=
EXTT5=
EXTT6=
EXTT7=
EXTT8=
EXTT9=
EXTT10=
EXTT11=
EXTT12=
EXTT13=
EXTT14=
PLAYORDER=
